<svg width="16" height="16" viewBox="0 0 16 16" fill="none" xmlns="http://www.w3.org/2000/svg">
  <path
    d="M5.33333 12.7982C3.99668 12.7982 2.86283 12.3326 1.93176 11.4014C1.00067 10.4702 0.535126 9.33621 0.535126 7.9994C0.535126 6.6626 1.00067 5.5288 1.93176 4.598C2.86283 3.66721 3.99668 3.20181 5.33333 3.20181C5.62873 3.20181 5.91592 3.2276 6.19491 3.27916C6.4739 3.33073 6.7454 3.40518 7.00941 3.50253C6.33042 4.06026 5.80385 4.73019 5.42969 5.51231C5.05555 6.29443 4.86848 7.12433 4.86848 8.002C4.86848 8.87965 5.05555 9.70888 5.42969 10.4897C5.80385 11.2705 6.33042 11.9397 7.00941 12.4975C6.7454 12.5948 6.4739 12.6693 6.19491 12.7208C5.91592 12.7724 5.62873 12.7982 5.33333 12.7982ZM10.6667 12.7982C10.3713 12.7982 10.0841 12.7724 9.80508 12.7208C9.52609 12.6693 9.25459 12.5948 8.99058 12.4975C9.21401 12.318 9.42234 12.1213 9.61558 11.9074C9.80881 11.6935 9.98562 11.468 10.146 11.2308C10.239 11.2477 10.3278 11.2604 10.4123 11.2688C10.4969 11.2773 10.5856 11.2815 10.6786 11.2815C11.5849 11.2762 12.3564 10.9543 12.9931 10.3158C13.6298 9.67738 13.9482 8.90522 13.9482 7.99936C13.9482 7.09351 13.6298 6.32089 12.9931 5.68151C12.3564 5.04215 11.5849 4.72113 10.6786 4.71848C10.5856 4.71848 10.4969 4.72271 10.4123 4.73116C10.3278 4.73961 10.239 4.75228 10.146 4.7692C9.98562 4.532 9.80881 4.30645 9.61558 4.09256C9.42234 3.87867 9.21401 3.682 8.99058 3.50253C9.25459 3.40518 9.52609 3.33073 9.80508 3.27916C10.0841 3.2276 10.3713 3.20181 10.6667 3.20181C12.0033 3.20181 13.1371 3.66741 14.0682 4.5986C14.9993 5.52978 15.4648 6.66378 15.4648 8.0006C15.4648 9.3374 14.9993 10.4712 14.0682 11.402C13.1371 12.3328 12.0033 12.7982 10.6667 12.7982ZM7.99999 11.9888C7.3268 11.5475 6.80325 10.974 6.42934 10.2683C6.05543 9.56262 5.86848 8.80652 5.86848 8C5.86848 7.19347 6.05543 6.43804 6.42934 5.7337C6.80325 5.02934 7.3268 4.45518 7.99999 4.01123C8.67318 4.45518 9.19673 5.02934 9.57064 5.7337C9.94455 6.43804 10.1315 7.19347 10.1315 8C10.1315 8.80652 9.94455 9.56262 9.57064 10.2683C9.19673 10.974 8.67318 11.5475 7.99999 11.9888Z"
    fill="#8A8992" />
</svg>