<svg width="16" height="16" viewBox="0 0 16 16" fill="none" xmlns="http://www.w3.org/2000/svg">
  <path
    d="M10.4062 11.2326L11.2239 10.4228L8.59384 7.77517V4.46595H7.50617V8.21418L10.4062 11.2326ZM8.00055 14.7663C7.07313 14.7663 6.19805 14.5888 5.37532 14.2339C4.55259 13.8789 3.83414 13.3944 3.21999 12.7803C2.60583 12.1663 2.12124 11.448 1.76622 10.6254C1.41121 9.80275 1.2337 8.92778 1.2337 8.00043C1.2337 7.07309 1.41147 6.1979 1.767 5.37487C2.12254 4.55183 2.60698 3.83365 3.22032 3.22032C3.83365 2.60697 4.55171 2.12187 5.3745 1.765C6.19728 1.40813 7.07245 1.2297 8 1.2297C8.92756 1.2297 9.80273 1.40813 10.6255 1.765C11.4483 2.12187 12.1664 2.60697 12.7797 3.22032C13.393 3.83365 13.8781 4.55171 14.235 5.3745C14.5919 6.19728 14.7703 7.07244 14.7703 8C14.7703 8.92755 14.5919 9.80272 14.235 10.6255C13.8781 11.4483 13.393 12.1663 12.7797 12.7797C12.1664 13.393 11.4484 13.8775 10.6257 14.233C9.80302 14.5885 8.92798 14.7663 8.00055 14.7663ZM7.99797 13.6308C9.54425 13.6308 10.8696 13.0799 11.9741 11.9781C13.0786 10.8763 13.6308 9.55091 13.6308 8.002C13.6308 6.45308 13.0787 5.12705 11.9746 4.02392C10.8705 2.92077 9.54565 2.3692 8.00004 2.3692C6.45243 2.3692 5.12705 2.9206 4.02392 4.02342C2.92078 5.12623 2.3692 6.45175 2.3692 8C2.3692 9.55024 2.92076 10.8763 4.02389 11.9781C5.127 13.0799 6.45169 13.6308 7.99797 13.6308Z"
    fill="#0A84FF" />
</svg>