<svg width="16" height="16" viewBox="0 0 16 16" fill="none" xmlns="http://www.w3.org/2000/svg">
  <path
    d="M4.34529 13.4688C3.29681 13.4688 2.401 13.1069 1.65785 12.383C0.914699 11.659 0.543121 10.7743 0.543121 9.72861C0.543121 8.83538 0.806221 8.03725 1.33242 7.33423C1.85863 6.6312 2.55326 6.18259 3.4163 5.98839C3.71003 4.95555 4.2802 4.12113 5.12682 3.48514C5.97343 2.84914 6.93116 2.53114 8 2.53114C9.31329 2.53114 10.4314 2.98525 11.3542 3.89348C12.277 4.80169 12.753 5.9111 12.7823 7.22173C13.5569 7.33985 14.1963 7.69432 14.7006 8.28514C15.2048 8.87597 15.4569 9.56268 15.4569 10.3453C15.4569 11.2129 15.1532 11.9504 14.5459 12.5578C13.9385 13.1652 13.201 13.4688 12.3333 13.4688H4.34529ZM4.34529 11.9522H12.3214C12.7721 11.9522 13.1546 11.795 13.4688 11.4808C13.7831 11.1665 13.9402 10.784 13.9402 10.3333C13.9402 9.8826 13.7831 9.50012 13.4688 9.18586C13.1546 8.87162 12.7721 8.71449 12.3214 8.71449H11.2736V7.32138C11.2736 6.41569 10.9544 5.64367 10.316 5.00533C9.67769 4.36699 8.90568 4.04783 8 4.04783C7.08842 4.04783 6.31493 4.37415 5.67954 5.02681C5.04415 5.67947 4.72645 6.46425 4.72645 7.38116H4.34529C3.71405 7.38116 3.17533 7.60426 2.72912 8.05046C2.2829 8.49666 2.05979 9.03537 2.05979 9.66658C2.05979 10.2978 2.2829 10.8365 2.72912 11.2828C3.17533 11.729 3.71405 11.9522 4.34529 11.9522Z"
    fill="#3CBDDB" />
</svg>