<svg width="16" height="17" viewBox="0 0 16 17" fill="none" xmlns="http://www.w3.org/2000/svg">
  <path
    d="M2.99316 14.186H13.9746C15.3076 14.186 15.9678 13.5259 15.9678 12.2183V4.46777C15.9678 3.16016 15.3076 2.5 13.9746 2.5H2.99316C1.6665 2.5 1 3.15381 1 4.46777V12.2183C1 13.5322 1.6665 14.186 2.99316 14.186ZM2.02197 4.51855C2.02197 3.8584 2.37109 3.52197 3.00586 3.52197H13.9619C14.5903 3.52197 14.9458 3.8584 14.9458 4.51855V4.63281H2.02197V4.51855ZM3.00586 13.1641C2.37109 13.1641 2.02197 12.8276 2.02197 12.1675V5.52783H14.9458V12.1675C14.9458 12.8276 14.5903 13.1641 13.9619 13.1641H3.00586ZM3.72949 11.6025C3.72949 11.9326 3.95801 12.1548 4.29443 12.1548H12.6924C13.0288 12.1548 13.2573 11.9326 13.2573 11.6025V10.6504C13.2573 10.3203 13.0288 10.0981 12.6924 10.0981H4.29443C3.95801 10.0981 3.72949 10.3203 3.72949 10.6504V11.6025Z"
    fill="#0A84FF" />
</svg>