<svg width="16" height="16" viewBox="0 0 16 16" fill="none" xmlns="http://www.w3.org/2000/svg">
<path d="M7.27064 14.737C6.41025 14.6587 5.6123 14.4287 4.8768 14.0469C4.14129 13.6652 3.505 13.169 2.96792 12.5583C2.43084 11.9477 2.00965 11.2511 1.70434 10.4685C1.39902 9.68587 1.24637 8.85882 1.24637 7.98732C1.24637 6.23587 1.82089 4.71619 2.96992 3.42827C4.11895 2.14033 5.55808 1.40748 7.2873 1.2297V2.3692C5.87571 2.58031 4.70524 3.21588 3.77589 4.2759C2.84654 5.33593 2.38187 6.57307 2.38187 7.98732C2.38187 9.39892 2.84376 10.6341 3.76755 11.6927C4.69135 12.7514 5.85905 13.3877 7.27064 13.6014V14.737ZM8.00397 11.3652L4.63875 8.00398L5.3873 7.25543L7.48005 9.34818V4.63478H8.5239V9.34818L10.6206 7.25543L11.3692 8.00398L8.00397 11.3652ZM8.7373 14.7369V13.6014C9.2431 13.5348 9.73012 13.4049 10.1984 13.2118C10.6666 13.0187 11.0994 12.7623 11.4967 12.4427L12.3297 13.2757C11.8106 13.6806 11.2472 14.0127 10.6395 14.2723C10.0318 14.5318 9.39769 14.6867 8.7373 14.7369ZM11.5134 3.54058C11.0938 3.24324 10.6527 2.99312 10.19 2.79022C9.72734 2.58732 9.2431 2.44698 8.7373 2.3692V1.2297C9.39769 1.30482 10.0296 1.46938 10.6331 1.72336C11.2366 1.97735 11.8022 2.30543 12.3297 2.7076L11.5134 3.54058ZM13.2797 12.2424L12.4634 11.4427C12.7803 11.0343 13.0319 10.5959 13.2181 10.1277C13.4043 9.65948 13.5321 9.17247 13.6014 8.66667H14.7536C14.6785 9.32705 14.5174 9.96111 14.2703 10.5688C14.0232 11.1766 13.693 11.7344 13.2797 12.2424ZM13.5975 7.3C13.5281 6.7942 13.401 6.3044 13.2161 5.83062C13.0312 5.35683 12.7803 4.92126 12.4634 4.52392L13.3424 3.74093C13.7446 4.26002 14.0636 4.82065 14.2996 5.42283C14.5356 6.025 14.687 6.65072 14.7536 7.3H13.5975Z" fill="#0A84FF"/>
</svg>
