<svg width="64" height="50" viewBox="0 0 64 50" fill="none" xmlns="http://www.w3.org/2000/svg">
<path d="M60.6616 5.24908H24.9563C23.6152 5.24908 22.3528 4.61472 21.552 3.53849L19.826 1.21884C19.2555 0.451707 18.3556 0 17.3995 0H2.56342C1.14788 0.0007025 0 1.14859 0 2.56413V13.7374C0 12.3219 1.14788 12.579 2.56342 12.579H60.6623C62.0778 12.579 63.2257 12.3219 63.2257 13.7374V7.8118C63.225 6.39697 62.0771 5.24908 60.6616 5.24908Z" fill="#30A8F9"/>
<path d="M60.6616 49.7995H2.56342C1.14788 49.7995 0 48.6516 0 47.2361V13.7374C0 12.3219 1.14788 11.174 2.56342 11.174H60.6623C62.0778 11.174 63.2257 12.3219 63.2257 13.7374V47.2361C63.225 48.6516 62.0771 49.7995 60.6616 49.7995Z" fill="#2A98EA"/>
</svg>
