<svg width="16" height="16" viewBox="0 0 16 16" fill="none" xmlns="http://www.w3.org/2000/svg">
  <path
    d="M9.18984 12.6188C9.38776 12.6188 9.55367 12.551 9.68755 12.4152C9.82144 12.2795 9.88839 12.1138 9.88839 11.9183C9.88839 11.7228 9.82144 11.5578 9.68755 11.4234C9.55367 11.2889 9.38776 11.2217 9.18984 11.2217C8.99191 11.2217 8.82601 11.2887 8.69212 11.4226C8.55823 11.5565 8.49129 11.7224 8.49129 11.9203C8.49129 12.1145 8.55823 12.2795 8.69212 12.4152C8.82601 12.551 8.99191 12.6188 9.18984 12.6188ZM11.2556 12.6188C11.4511 12.6188 11.6161 12.551 11.7505 12.4152C11.8849 12.2795 11.9522 12.1138 11.9522 11.9183C11.9522 11.7228 11.8852 11.5578 11.7513 11.4234C11.6174 11.2889 11.4515 11.2217 11.2536 11.2217C11.0594 11.2217 10.8944 11.2887 10.7587 11.4226C10.6229 11.5565 10.5551 11.7224 10.5551 11.9203C10.5551 12.1145 10.6229 12.2795 10.7587 12.4152C10.8944 12.551 11.0601 12.6188 11.2556 12.6188ZM1.86447 8.53115V2.7145C1.86447 2.29469 2.0123 1.93695 2.30795 1.6413C2.60361 1.34564 2.96134 1.19781 3.38115 1.19781H12.6188C13.0386 1.19781 13.3964 1.34564 13.692 1.6413C13.9877 1.93695 14.1355 2.29469 14.1355 2.7145V8.53115H12.6188V2.7145H3.38115V8.53115H1.86447ZM3.38115 10.0478V13.2855H12.6188V10.0478H3.38115ZM3.38115 14.8022C2.96134 14.8022 2.60361 14.6543 2.30795 14.3587C2.0123 14.063 1.86447 13.7053 1.86447 13.2855V8.53115H14.1355V13.2855C14.1355 13.7053 13.9877 14.063 13.692 14.3587C13.3964 14.6543 13.0386 14.8022 12.6188 14.8022H3.38115Z"
    fill="#757384" />
</svg>