<svg width="22" height="22" viewBox="0 0 22 22" fill="none" xmlns="http://www.w3.org/2000/svg">
  <path
    d="M18.2362 19.3805L12.1762 13.326C11.7215 13.712 11.1899 14.0131 10.5812 14.2293C9.97256 14.4455 9.32202 14.5536 8.62962 14.5536C6.95158 14.5536 5.53113 13.9715 4.36826 12.8074C3.2054 11.6433 2.62396 10.2388 2.62396 8.59375C2.62396 6.94873 3.20602 5.54417 4.37012 4.38006C5.53421 3.21597 6.94259 2.63393 8.59524 2.63393C10.2479 2.63393 11.6525 3.21597 12.8089 4.38006C13.9654 5.54417 14.5436 6.94988 14.5436 8.59719C14.5436 9.25914 14.4394 9.89294 14.231 10.4986C14.0226 11.1042 13.71 11.6726 13.2932 12.2036L19.376 18.2407L18.2362 19.3805ZM8.60865 12.9923C9.82675 12.9923 10.8602 12.5626 11.709 11.7033C12.5579 10.844 12.9823 9.80751 12.9823 8.59375C12.9823 7.37999 12.5576 6.34347 11.7082 5.48419C10.8589 4.62489 9.82568 4.19524 8.60865 4.19524C7.37888 4.19524 6.33421 4.62489 5.47464 5.48419C4.61506 6.34347 4.18527 7.37999 4.18527 8.59375C4.18527 9.80751 4.61479 10.844 5.47383 11.7033C6.33286 12.5626 7.3778 12.9923 8.60865 12.9923Z"
    fill="black" />
</svg>