<svg width="16" height="16" viewBox="0 0 16 16" fill="none" xmlns="http://www.w3.org/2000/svg">
  <path
    d="M2.71451 13.4688C2.2947 13.4688 1.93697 13.321 1.64131 13.0254C1.34567 12.7297 1.19785 12.372 1.19785 11.9522V4.04783C1.19785 3.62536 1.34568 3.26697 1.64135 2.97264C1.93699 2.67831 2.29472 2.53114 2.71453 2.53114H6.60691L8.00001 3.92426H13.2855C13.708 3.92426 14.0664 4.07209 14.3607 4.36774C14.655 4.6634 14.8022 5.02113 14.8022 5.44094H7.37428L5.98116 4.04783H2.71451V11.9721L4.29856 6.77428H15.7743L14.0975 12.2757C13.9767 12.6576 13.7736 12.9519 13.4882 13.1587C13.2029 13.3655 12.8666 13.4688 12.4794 13.4688H2.71451ZM4.31778 11.9522H12.6029L13.7112 8.29094H5.4261L4.31778 11.9522Z"
    fill="#3CBDDB" />
</svg>