<svg width="22" height="24" viewBox="0 0 22 24" fill="none" xmlns="http://www.w3.org/2000/svg">
  <g filter="url(#filter0_d_19_6)">
    <path
      d="M13.361 4.55483C13.8623 3.95654 14.21 3.13997 14.21 2.31531C14.21 2.20212 14.2019 2.08893 14.1776 2C13.3772 2.03234 12.407 2.5336 11.8249 3.21273C11.3722 3.73017 10.9517 4.55483 10.9517 5.37948C10.9517 5.50884 10.9679 5.63012 10.9841 5.67054C11.0326 5.67863 11.1134 5.6948 11.1943 5.6948C11.9219 5.6948 12.8274 5.2097 13.361 4.55483ZM13.9351 5.86458C12.7223 5.86458 11.7441 6.6003 11.1134 6.6003C10.4424 6.6003 9.56923 5.91309 8.51819 5.91309C6.52122 5.91309 4.5 7.56241 4.5 10.667C4.5 12.6074 5.24381 14.6529 6.17357 15.9707C6.96589 17.0864 7.66119 18 8.65563 18C9.65008 18 10.0867 17.3451 11.3075 17.3451C12.5606 17.3451 12.8355 17.9838 13.9351 17.9838C15.0184 17.9838 15.738 16.9894 16.4171 16.0111C17.1852 14.8873 17.5005 13.7959 17.5167 13.7393C17.452 13.7231 15.3742 12.8742 15.3742 10.5053C15.3742 8.45174 17.0073 7.53007 17.0963 7.4573C16.0291 5.91309 14.3878 5.86458 13.9351 5.86458Z"
      fill="white" fill-opacity="0.9" />
  </g>
  <defs>
    <filter id="filter0_d_19_6" x="0.5" y="0" width="21.0167" height="24" filterUnits="userSpaceOnUse"
      color-interpolation-filters="sRGB">
      <feFlood flood-opacity="0" result="BackgroundImageFix" />
      <feColorMatrix in="SourceAlpha" type="matrix" values="0 0 0 0 0 0 0 0 0 0 0 0 0 0 0 0 0 0 127 0"
        result="hardAlpha" />
      <feOffset dy="2" />
      <feGaussianBlur stdDeviation="2" />
      <feColorMatrix type="matrix" values="0 0 0 0 0 0 0 0 0 0 0 0 0 0 0 0 0 0 0.15 0" />
      <feBlend mode="normal" in2="BackgroundImageFix" result="effect1_dropShadow_19_6" />
      <feBlend mode="normal" in="SourceGraphic" in2="effect1_dropShadow_19_6" result="shape" />
    </filter>
  </defs>
</svg>