<svg width="32" height="19" viewBox="0 0 32 19" fill="none" xmlns="http://www.w3.org/2000/svg">
<g filter="url(#filter0_d_23_30)">
<path d="M8.16406 12.9766H20.6406C21.3073 12.9766 21.9167 12.9219 22.4688 12.8125C23.0208 12.7031 23.4948 12.4505 23.8906 12.0547C24.2917 11.6536 24.5443 11.1797 24.6484 10.6328C24.7526 10.0859 24.8047 9.47656 24.8047 8.80469V6.16406C24.8047 5.4974 24.7526 4.89062 24.6484 4.34375C24.5443 3.79688 24.2917 3.32292 23.8906 2.92188C23.4896 2.52604 23.013 2.27344 22.4609 2.16406C21.9141 2.05469 21.3073 2 20.6406 2H8.14844C7.49219 2 6.88802 2.05469 6.33594 2.16406C5.78906 2.27344 5.3151 2.52865 4.91406 2.92969C4.51823 3.32552 4.26562 3.79688 4.15625 4.34375C4.05208 4.89062 4 5.49219 4 6.14844V8.80469C4 9.47656 4.05208 10.0859 4.15625 10.6328C4.26042 11.1797 4.51302 11.6536 4.91406 12.0547C5.3151 12.4505 5.78906 12.7031 6.33594 12.8125C6.88802 12.9219 7.4974 12.9766 8.16406 12.9766ZM7.95312 11.7188C7.55208 11.7188 7.15625 11.6797 6.76562 11.6016C6.38021 11.5234 6.06771 11.3672 5.82812 11.1328C5.59375 10.8984 5.4401 10.5885 5.36719 10.2031C5.29427 9.81771 5.25781 9.42448 5.25781 9.02344V5.97656C5.25781 5.5651 5.29427 5.16667 5.36719 4.78125C5.4401 4.39062 5.59375 4.07552 5.82812 3.83594C6.0625 3.60156 6.375 3.44792 6.76562 3.375C7.16146 3.29688 7.5651 3.25781 7.97656 3.25781H20.8516C21.2526 3.25781 21.6458 3.29688 22.0312 3.375C22.4219 3.44792 22.737 3.60417 22.9766 3.84375C23.2109 4.07812 23.3646 4.38802 23.4375 4.77344C23.5104 5.15885 23.5469 5.55208 23.5469 5.95312V9.02344C23.5469 9.42448 23.5104 9.81771 23.4375 10.2031C23.3646 10.5885 23.2109 10.8984 22.9766 11.1328C22.737 11.3724 22.4219 11.5312 22.0312 11.6094C21.6458 11.6823 21.2526 11.7188 20.8516 11.7188H7.95312ZM25.8672 9.50781C26.0755 9.49219 26.2917 9.40104 26.5156 9.23438C26.7396 9.0625 26.9297 8.82812 27.0859 8.53125C27.2422 8.23438 27.3203 7.88542 27.3203 7.48438C27.3203 7.08854 27.2422 6.74219 27.0859 6.44531C26.9297 6.14844 26.7396 5.91406 26.5156 5.74219C26.2917 5.57031 26.0755 5.47917 25.8672 5.46875V9.50781ZM7.64062 10.7266H21.1719C21.4427 10.7266 21.6615 10.7057 21.8281 10.6641C21.9948 10.6224 22.138 10.5443 22.2578 10.4297C22.3724 10.3151 22.4505 10.1745 22.4922 10.0078C22.5391 9.83594 22.5625 9.61458 22.5625 9.34375V5.63281C22.5625 5.36198 22.5391 5.14323 22.4922 4.97656C22.4505 4.80469 22.3724 4.66146 22.2578 4.54688C22.138 4.42708 21.9948 4.34896 21.8281 4.3125C21.6615 4.27083 21.4427 4.25 21.1719 4.25H7.64062C7.36458 4.25 7.14323 4.27083 6.97656 4.3125C6.8099 4.34896 6.66927 4.42708 6.55469 4.54688C6.4401 4.66146 6.35938 4.80469 6.3125 4.97656C6.27083 5.14323 6.25 5.36198 6.25 5.63281V9.34375C6.25 9.61458 6.27083 9.83594 6.3125 10.0078C6.35938 10.1745 6.4401 10.3151 6.55469 10.4297C6.67448 10.5443 6.8151 10.6224 6.97656 10.6641C7.14323 10.7057 7.36458 10.7266 7.64062 10.7266Z" fill="white" fill-opacity="0.9"/>
</g>
<defs>
<filter id="filter0_d_23_30" x="0" y="0" width="31.3203" height="18.9766" filterUnits="userSpaceOnUse" color-interpolation-filters="sRGB">
<feFlood flood-opacity="0" result="BackgroundImageFix"/>
<feColorMatrix in="SourceAlpha" type="matrix" values="0 0 0 0 0 0 0 0 0 0 0 0 0 0 0 0 0 0 127 0" result="hardAlpha"/>
<feOffset dy="2"/>
<feGaussianBlur stdDeviation="2"/>
<feColorMatrix type="matrix" values="0 0 0 0 0 0 0 0 0 0 0 0 0 0 0 0 0 0 0.15 0"/>
<feBlend mode="normal" in2="BackgroundImageFix" result="effect1_dropShadow_23_30"/>
<feBlend mode="normal" in="SourceGraphic" in2="effect1_dropShadow_23_30" result="shape"/>
</filter>
</defs>
</svg>
