<svg width="5" height="10" viewBox="0 0 5 10" fill="none" xmlns="http://www.w3.org/2000/svg">
  <path
    d="M0.764331 9.48438C0.973612 9.48438 1.14195 9.40611 1.28753 9.24959L4.71338 5.65938C4.90446 5.44905 4.99545 5.24361 5 4.98438C5 4.73003 4.90901 4.51481 4.71338 4.30938L1.28753 0.714266C1.14195 0.562636 0.969063 0.484375 0.764331 0.484375C0.341219 0.484375 0 0.846332 0 1.29633C0 1.52133 0.0864422 1.72677 0.245678 1.89796L3.21201 4.98927L0.245678 8.07079C0.0864422 8.24198 0 8.44742 0 8.67242C0 9.11753 0.341219 9.48438 0.764331 9.48438Z"
    fill="white" fill-opacity="0.9" />
</svg>