<svg width="21" height="23" viewBox="0 0 21 23" fill="none" xmlns="http://www.w3.org/2000/svg">
<g filter="url(#filter0_d_23_33)">
<path d="M7.34375 16.75H13.0156C13.6354 16.75 14.1979 16.6146 14.7031 16.3438C15.2083 16.0781 15.6094 15.7031 15.9062 15.2188C16.2083 14.7396 16.3594 14.1797 16.3594 13.5391C16.3594 12.8984 16.2083 12.3385 15.9062 11.8594C15.6094 11.375 15.2083 11 14.7031 10.7344C14.1979 10.4635 13.6354 10.3281 13.0156 10.3281H7.34375C6.72396 10.3281 6.16146 10.4635 5.65625 10.7344C5.15104 11 4.7474 11.375 4.44531 11.8594C4.14844 12.3385 4 12.8984 4 13.5391C4 14.1797 4.14844 14.7396 4.44531 15.2188C4.7474 15.7031 5.15104 16.0781 5.65625 16.3438C6.16146 16.6146 6.72396 16.75 7.34375 16.75ZM13.2188 15.5703C12.8438 15.5651 12.5026 15.4714 12.1953 15.2891C11.888 15.1068 11.6432 14.862 11.4609 14.5547C11.2839 14.2474 11.1953 13.9062 11.1953 13.5312C11.1953 13.1615 11.2839 12.8229 11.4609 12.5156C11.6432 12.2083 11.888 11.9635 12.1953 11.7812C12.5026 11.599 12.8438 11.5078 13.2188 11.5078C13.5938 11.5078 13.9349 11.599 14.2422 11.7812C14.5547 11.9635 14.8021 12.2083 14.9844 12.5156C15.1667 12.8177 15.2552 13.1536 15.25 13.5234C15.25 13.8984 15.1562 14.2422 14.9688 14.5547C14.7865 14.8672 14.5417 15.1146 14.2344 15.2969C13.9323 15.4792 13.5938 15.5703 13.2188 15.5703ZM7.66406 9.125H12.7031C13.3698 9.125 13.9792 8.97656 14.5312 8.67969C15.0885 8.38281 15.5312 7.96615 15.8594 7.42969C16.1927 6.89323 16.3594 6.27083 16.3594 5.5625C16.3594 4.85417 16.1927 4.23177 15.8594 3.69531C15.5312 3.15885 15.0885 2.74219 14.5312 2.44531C13.9792 2.14844 13.3698 2 12.7031 2H7.66406C6.99219 2 6.3776 2.14844 5.82031 2.44531C5.26823 2.74219 4.82552 3.15885 4.49219 3.69531C4.16406 4.23177 4 4.85417 4 5.5625C4 6.27083 4.16406 6.89323 4.49219 7.42969C4.82552 7.96615 5.26823 8.38281 5.82031 8.67969C6.3776 8.97656 6.99219 9.125 7.66406 9.125ZM7.66406 7.94531C7.22656 7.94531 6.81771 7.84635 6.4375 7.64844C6.0625 7.44531 5.75781 7.16667 5.52344 6.8125C5.29427 6.45312 5.17969 6.03646 5.17969 5.5625C5.17969 5.08854 5.29427 4.67448 5.52344 4.32031C5.75781 3.96094 6.0625 3.68229 6.4375 3.48438C6.81771 3.28125 7.22656 3.17969 7.66406 3.17969H12.7031C13.1354 3.17969 13.5391 3.28125 13.9141 3.48438C14.2943 3.68229 14.599 3.96094 14.8281 4.32031C15.0625 4.67448 15.1797 5.08854 15.1797 5.5625C15.1797 6.03646 15.0625 6.45312 14.8281 6.8125C14.599 7.16667 14.2943 7.44531 13.9141 7.64844C13.5391 7.84635 13.1354 7.94531 12.7031 7.94531H7.66406ZM7.66406 7.41406C8.00781 7.41927 8.31771 7.33854 8.59375 7.17188C8.875 7 9.09896 6.77344 9.26562 6.49219C9.4375 6.20573 9.52344 5.89062 9.52344 5.54688C9.52865 5.20312 9.44792 4.89323 9.28125 4.61719C9.11458 4.33594 8.88802 4.11458 8.60156 3.95312C8.32031 3.78646 8.00781 3.70312 7.66406 3.70312C7.32031 3.70312 7.00781 3.78646 6.72656 3.95312C6.44531 4.11979 6.22135 4.34375 6.05469 4.625C5.89323 4.90625 5.8125 5.21615 5.8125 5.55469C5.8125 5.89844 5.89323 6.21094 6.05469 6.49219C6.22135 6.77344 6.44531 6.9974 6.72656 7.16406C7.00781 7.33073 7.32031 7.41406 7.66406 7.41406Z" fill="white" fill-opacity="0.9"/>
</g>
<defs>
<filter id="filter0_d_23_33" x="0" y="0" width="20.3594" height="22.75" filterUnits="userSpaceOnUse" color-interpolation-filters="sRGB">
<feFlood flood-opacity="0" result="BackgroundImageFix"/>
<feColorMatrix in="SourceAlpha" type="matrix" values="0 0 0 0 0 0 0 0 0 0 0 0 0 0 0 0 0 0 127 0" result="hardAlpha"/>
<feOffset dy="2"/>
<feGaussianBlur stdDeviation="2"/>
<feColorMatrix type="matrix" values="0 0 0 0 0 0 0 0 0 0 0 0 0 0 0 0 0 0 0.15 0"/>
<feBlend mode="normal" in2="BackgroundImageFix" result="effect1_dropShadow_23_33"/>
<feBlend mode="normal" in="SourceGraphic" in2="effect1_dropShadow_23_33" result="shape"/>
</filter>
</defs>
</svg>
