<svg width="26" height="22" viewBox="0 0 26 22" fill="none" xmlns="http://www.w3.org/2000/svg">
  <g filter="url(#filter0_d_402_1403)">
    <path
      d="M12.6484 15.4766C12.7318 15.4766 12.8151 15.4505 12.8984 15.3984C12.987 15.3464 13.1042 15.25 13.25 15.1094L15.0781 13.3516C15.1406 13.2943 15.1745 13.2292 15.1797 13.1562C15.1901 13.0781 15.1693 13.0052 15.1172 12.9375C14.8724 12.6198 14.5312 12.3438 14.0938 12.1094C13.6615 11.875 13.1797 11.7578 12.6484 11.7578C12.1068 11.7578 11.6146 11.8802 11.1719 12.125C10.7344 12.3698 10.3932 12.6562 10.1484 12.9844C10.112 13.0417 10.099 13.1042 10.1094 13.1719C10.125 13.2344 10.1641 13.2943 10.2266 13.3516L12.0547 15.1094C12.1953 15.25 12.3099 15.3464 12.3984 15.3984C12.487 15.4505 12.5703 15.4766 12.6484 15.4766ZM8.25781 11.375C8.33594 11.4531 8.42188 11.4896 8.51562 11.4844C8.60938 11.4792 8.69531 11.4349 8.77344 11.3516C9.22135 10.8464 9.79167 10.4323 10.4844 10.1094C11.1771 9.78646 11.8984 9.6276 12.6484 9.63281C13.4089 9.6276 14.1354 9.79167 14.8281 10.125C15.5208 10.4531 16.0964 10.8698 16.5547 11.375C16.6276 11.4531 16.7083 11.4922 16.7969 11.4922C16.8854 11.487 16.9661 11.4453 17.0391 11.3672L18.2031 10.2188C18.2656 10.1562 18.2995 10.0885 18.3047 10.0156C18.3099 9.9375 18.2865 9.86458 18.2344 9.79688C17.8542 9.33333 17.3776 8.91927 16.8047 8.55469C16.2318 8.1849 15.5911 7.89583 14.8828 7.6875C14.1745 7.47396 13.4297 7.36719 12.6484 7.36719C11.8672 7.36719 11.1224 7.47396 10.4141 7.6875C9.71094 7.89583 9.07292 8.1849 8.5 8.55469C7.92708 8.91927 7.45052 9.33333 7.07031 9.79688C7.01302 9.86458 6.98698 9.9349 6.99219 10.0078C6.9974 10.0807 7.03125 10.151 7.09375 10.2188L8.25781 11.375ZM5.13281 8.24219C5.20573 8.32031 5.28906 8.35938 5.38281 8.35938C5.48177 8.35417 5.5651 8.3125 5.63281 8.23438C6.5599 7.25521 7.61979 6.51302 8.8125 6.00781C10.0052 5.4974 11.2839 5.24219 12.6484 5.24219C14.0182 5.24219 15.2995 5.4974 16.4922 6.00781C17.6901 6.51823 18.75 7.26302 19.6719 8.24219C19.7396 8.3099 19.8203 8.34375 19.9141 8.34375C20.0078 8.34375 20.0885 8.30469 20.1562 8.22656L21.1875 7.1875C21.2552 7.125 21.2891 7.05469 21.2891 6.97656C21.2943 6.89323 21.2708 6.82031 21.2188 6.75781C20.6302 6.03385 19.888 5.38802 18.9922 4.82031C18.0964 4.2474 17.1042 3.79948 16.0156 3.47656C14.9323 3.14844 13.8099 2.98438 12.6484 2.98438C11.487 2.98438 10.362 3.14844 9.27344 3.47656C8.1849 3.79948 7.19271 4.2474 6.29688 4.82031C5.40625 5.38802 4.66667 6.03385 4.07812 6.75781C4.02604 6.82031 4 6.89323 4 6.97656C4.00521 7.05469 4.03906 7.125 4.10156 7.1875L5.13281 8.24219Z"
      fill="white" fill-opacity="0.9" />
  </g>
  <defs>
    <filter id="filter0_d_402_1403" x="0" y="0.984375" width="25.29" height="20.4922" filterUnits="userSpaceOnUse"
      color-interpolation-filters="sRGB">
      <feFlood flood-opacity="0" result="BackgroundImageFix" />
      <feColorMatrix in="SourceAlpha" type="matrix" values="0 0 0 0 0 0 0 0 0 0 0 0 0 0 0 0 0 0 127 0"
        result="hardAlpha" />
      <feOffset dy="2" />
      <feGaussianBlur stdDeviation="2" />
      <feColorMatrix type="matrix" values="0 0 0 0 0 0 0 0 0 0 0 0 0 0 0 0 0 0 0.15 0" />
      <feBlend mode="normal" in2="BackgroundImageFix" result="effect1_dropShadow_402_1403" />
      <feBlend mode="normal" in="SourceGraphic" in2="effect1_dropShadow_402_1403" result="shape" />
    </filter>
  </defs>
</svg>